<?xml version="1.0" encoding="UTF-8" standalone="no"?>
<!-- Created with Inkscape (http://www.inkscape.org/) -->

<svg
   xmlns:dc="http://purl.org/dc/elements/1.1/"
   xmlns:cc="http://creativecommons.org/ns#"
   xmlns:rdf="http://www.w3.org/1999/02/22-rdf-syntax-ns#"
   xmlns:svg="http://www.w3.org/2000/svg"
   xmlns="http://www.w3.org/2000/svg"
   xmlns:sodipodi="http://sodipodi.sourceforge.net/DTD/sodipodi-0.dtd"
   xmlns:inkscape="http://www.inkscape.org/namespaces/inkscape"
   width="5.6444445mm"
   height="5.3748999mm"
   viewBox="0 0 20 19.044921"
   id="svg5602"
   version="1.1"
   inkscape:version="0.91 r13725"
   sodipodi:docname="notification-icon.svg">
  <defs
     id="defs5604" />
  <sodipodi:namedview
     id="base"
     pagecolor="#ffffff"
     bordercolor="#666666"
     borderopacity="1.0"
     inkscape:pageopacity="0.0"
     inkscape:pageshadow="2"
     inkscape:zoom="7.6862576"
     inkscape:cx="-12.241753"
     inkscape:cy="-0.73351157"
     inkscape:document-units="px"
     inkscape:current-layer="layer1"
     showgrid="false"
     inkscape:window-width="1280"
     inkscape:window-height="751"
     inkscape:window-x="0"
     inkscape:window-y="1"
     inkscape:window-maximized="1"
     fit-margin-top="0"
     fit-margin-left="0"
     fit-margin-right="0"
     fit-margin-bottom="0">
    <inkscape:grid
       type="xygrid"
       id="grid7123"
       originx="-1753.7681"
       originy="-749.05512" />
  </sodipodi:namedview>
  <metadata
     id="metadata5607">
    <rdf:RDF>
      <cc:Work
         rdf:about="">
        <dc:format>image/svg+xml</dc:format>
        <dc:type
           rdf:resource="http://purl.org/dc/dcmitype/StillImage" />
        <dc:title></dc:title>
      </cc:Work>
    </rdf:RDF>
  </metadata>
  <g
     inkscape:label="Layer 1"
     inkscape:groupmode="layer"
     id="layer1"
     transform="translate(-639.684,-465.77285)">
    <path
       style="fill:#000000;fill-opacity:1;fill-rule:evenodd;stroke:none;stroke-width:1px;stroke-linecap:butt;stroke-linejoin:miter;stroke-opacity:1"
       d="m 643.69181,465.77285 c -1.00765,0.0452 -1.00781,0.0449 -1.00781,2.04492 l -1,0 c -1,0 -2,1 -2,2 l 0,13 c 0,1 1,2 2,2 l 16,0 c 1,0 2,-1 2,-2 l 0,-13 c 0,-1 -1,-2 -2,-2 l -1,0 c 0,-2 -4.2e-4,-1.99972 -1.00586,-2.04492 -0.99456,0.0452 -0.99414,0.0449 -0.99414,2.04492 l -2,0 c 0,-2 -2.8e-4,-1.99993 -0.98242,-1.98828 -1.01786,-0.0117 -1.01758,-0.0117 -1.01758,1.98828 l -2,0 c 0,-2 0,-1.99993 -1.01562,-1.98828 -0.98436,-0.0117 -0.98438,-0.0117 -0.98438,1.98828 l -2,0 c 0,-1.99996 1.6e-4,-1.99976 -0.99219,-2.04492 z m -3.00781,7.04492 1,0 17,0 0,1 0,10 -1,0 -16,0 -1,0 0,-11 z m 1,1 0,4 16,0 0,-4 -16,0 z m 2,1 a 1,1 0 0 1 1,1 1,1 0 0 1 -1,1 1,1 0 0 1 -1,-1 1,1 0 0 1 1,-1 z m -2,4 0,4 16,0 0,-4 -16,0 z m 2,1 a 1,1 0 0 1 1,1 1,1 0 0 1 -1,1 1,1 0 0 1 -1,-1 1,1 0 0 1 1,-1 z"
       id="path7268"
       inkscape:connector-curvature="0" />
  </g>
</svg>
